<svg
  aria-hidden="true"
  style="position: absolute; width: 0; height: 0; overflow: hidden;"
  version="1.1"
  xmlns="http://www.w3.org/2000/svg"
  xmlns:xlink="http://www.w3.org/1999/xlink"
>
  <defs>
    <symbol id="icon-company-logo" viewBox="0 0 76 32">
      <path
        d="M66.967 17.087c-0.768-0.025-1.534-0.050-2.302-0.025-3.569 0.148-7.612 0.772-10.15 3.512-1.211 1.308-1.868 2.928-1.775 4.707 0.061 1.006 0.331 1.989 0.793 2.888-0.004 0.008-0.009 0.015-0.013 0.023-0.002 0.004-0.004 0.008-0.007 0.012-0.136 0.229-0.424 0.548-0.714 0.869-0.367 0.407-0.738 0.817-0.811 1.057-0.019 0.061-0.005 0.135 0.013 0.194 0.060 0.2 0.269 0.356 0.432 0.479l0.012 0.009c0.359-0.348 0.685-0.726 1.011-1.104l0.026-0.030 0.66-0.795c1.753 0.98 3.473 1.289 5.439 0.751 2.407-0.658 4.268-2.347 5.468-4.468 1.335-2.361 1.95-5.394 2.039-8.076l-0.122-0.004zM63.481 19.454c0.009 0.002 0.018 0.005 0.027 0.007 0.085 0.021 0.163 0.040 0.235 0.097 0.077 0.061 0.138 0.157 0.133 0.257-0.006 0.119-0.050 0.178-0.133 0.261-0.258 0.257-0.569 0.483-0.875 0.704-0.135 0.098-0.269 0.195-0.397 0.294-0.809 0.617-1.605 1.248-2.39 1.894 0.496-0.118 2.158-0.399 2.59-0.253 0.133 0.046 0.178 0.11 0.233 0.233-0.012 0.182-0.068 0.293-0.244 0.369-0.080 0.035-0.676 0.092-1.345 0.156-0.761 0.073-1.617 0.155-1.91 0.223-0.186 0.043-0.333 0.105-0.489 0.213-0.236 0.163-0.45 0.367-0.661 0.569-0.078 0.075-0.156 0.149-0.235 0.221-0.693 0.634-1.373 1.273-2.037 1.936 0.472 0.103 1.166 0.070 1.837 0.038 0.757-0.036 1.485-0.070 1.837 0.092 0.058 0.073 0.075 0.15 0.067 0.243-0.007 0.075-0.050 0.121-0.103 0.17-0.29 0.261-3.155 0.177-3.599 0.127-0.018-0.003-0.036-0.006-0.055-0.009-0.099-0.017-0.209-0.035-0.302-0.016-0.719 0.146-1.705 1.244-2.133 1.795l0.026-0.060c0.2-0.459 0.401-0.921 0.678-1.341 0.47-0.712 1.805-2.029 2.46-2.652 0.104-0.099 0.226-0.2 0.35-0.303 0.276-0.229 0.57-0.473 0.733-0.744 0.164-0.273 0.262-0.844 0.364-1.442 0.129-0.753 0.266-1.55 0.551-1.858 0.083-0.089 0.108-0.095 0.222-0.106 0.113 0.049 0.185 0.096 0.249 0.204 0.046 0.079 0.053 0.157 0.041 0.244-0.030 0.212-0.105 0.435-0.179 0.653-0.040 0.118-0.079 0.235-0.111 0.348-0.107 0.384-0.188 0.773-0.269 1.163-0.009 0.044-0.019 0.088-0.028 0.132 0.378-0.359 0.802-0.677 1.223-0.994 0.137-0.102 0.273-0.205 0.406-0.308 0.203-0.156 0.406-0.312 0.61-0.468 0.887-0.679 1.779-1.362 2.623-2.088z"
      ></path>
      <path
        d="M11.105 0.269c-0.014 0.001-0.028 0.004-0.041 0.007-1.524 0.18-2.903 0.867-3.863 2.064-1.176 1.466-1.498 3.339-1.274 5.163 0.194 1.58 0.927 3.073 2.221 4.055 1.293 0.981 2.796 1.259 4.392 1.136 1.553-0.21 2.953-0.903 3.918-2.145 1.119-1.441 1.427-3.344 1.183-5.111-0.222-1.605-1.032-3.1-2.356-4.078-1.2-0.886-2.693-1.246-4.179-1.091zM11.603 2.315c0.834-0.010 1.589 0.144 2.245 0.679 0.803 0.655 1.166 1.688 1.258 2.683 0.119 1.281-0.023 2.795-0.896 3.819-0.601 0.705-1.373 0.987-2.281 1.066-0.017 0.002-0.034 0.004-0.051 0.005-0.771 0.039-1.573-0.186-2.17-0.675-0.819-0.672-1.165-1.694-1.252-2.712-0.109-1.275-0.008-2.829 0.876-3.849 0.599-0.691 1.376-0.952 2.271-1.016z"
      ></path>
      <path
        d="M29.644 3.484c-0.005 0.001-0.011 0.001-0.016 0.002-1.041 0.099-1.93 0.506-2.608 1.307-0.847 1.001-1.136 2.406-1.010 3.68 0.106 1.073 0.553 2.133 1.42 2.822 0.874 0.695 1.994 0.859 3.086 0.729 0.86-0.103 1.427-0.481 2.022-1.078 0.001 0.058 0.002 0.117 0.003 0.177 0.016 0.809 0.035 1.788-0.574 2.39-0.409 0.404-0.996 0.49-1.551 0.479-0.599-0.012-1.203-0.149-1.63-0.597-0.121-0.127-0.2-0.285-0.278-0.44-0.014-0.027-0.027-0.055-0.041-0.082-0.217-0.001-0.443-0.008-0.672-0.015-0.555-0.018-1.128-0.037-1.646 0.039-0.045 0.117-0.012 0.244 0.020 0.365 0.006 0.024 0.013 0.048 0.018 0.071 0.309 0.913 0.969 1.617 1.837 2.051 1.234 0.617 2.989 0.671 4.291 0.241 0.958-0.316 1.783-0.956 2.235-1.856 0.173-0.353 0.285-0.733 0.33-1.123 0.090-0.714 0.082-1.465 0.074-2.202-0.003-0.268-0.005-0.534-0.003-0.797l0.015-5.965c-0.238 0-0.476 0.001-0.714 0.002-0.557 0.002-1.114 0.005-1.671-0.002l-0.001 0.781c-0.875-0.712-1.753-1.070-2.905-0.983-0.010 0.001-0.020 0.002-0.030 0.003zM30.276 5.388c0.464-0.039 0.949 0.042 1.349 0.284 0.457 0.277 0.74 0.726 0.865 1.234 0.179 0.729 0.167 1.729-0.248 2.378-0.33 0.516-0.806 0.71-1.385 0.83-0.512 0.056-1.040-0.009-1.475-0.303-0.512-0.346-0.789-0.914-0.892-1.504-0.124-0.714-0.039-1.55 0.404-2.147 0.344-0.464 0.82-0.689 1.383-0.772z"
      ></path>
      <path
        d="M45.807 20.62c-0.76-0.619-1.71-0.85-2.681-0.827-1.136 0.087-1.822 0.422-2.572 1.26l-0.004-1.065-2.418 0.001 0.001 12.089 2.46-0.002-0.004-1.782 0.004-2.256c0.891 0.731 1.844 1.104 3.016 1.003 1.032-0.088 1.934-0.551 2.601-1.334 0.933-1.095 1.207-2.617 1.071-4.008-0.113-1.151-0.549-2.323-1.475-3.078zM42.468 21.785c0.489-0.051 1.014 0.061 1.416 0.346 0.552 0.39 0.814 1.030 0.904 1.673 0.117 0.837 0.033 1.819-0.518 2.502-0.377 0.468-0.831 0.664-1.415 0.742-0.509 0.049-1.066-0.066-1.483-0.365-0.476-0.34-0.727-0.858-0.818-1.419-0.138-0.848-0.114-2.001 0.432-2.713 0.377-0.492 0.881-0.695 1.482-0.767z"
      ></path>
      <path
        d="M36.747 24.051c-0.201-2.57-2.475-4.494-5.082-4.3-2.613 0.194-4.57 2.442-4.369 5.018s2.485 4.502 5.097 4.299c2.606-0.202 4.554-2.447 4.353-5.017zM31.813 21.696c0.453-0.052 0.956 0.060 1.345 0.291 0.532 0.315 0.857 0.849 0.998 1.434 0.203 0.848 0.167 1.954-0.322 2.707-0.354 0.545-0.838 0.804-1.462 0.933-0.569 0.023-1.074-0.022-1.558-0.353-0.54-0.369-0.831-0.974-0.939-1.597-0.145-0.841-0.078-1.868 0.448-2.576 0.375-0.505 0.879-0.745 1.491-0.838z"
      ></path>
      <path
        d="M10.050 16.756c0.183-0.025 0.381-0.022 0.566-0.028 1.346-0.043 2.79 0.186 3.802 1.137 0.74 0.695 0.958 1.528 0.978 2.506l-2.437 0.009c-0.028-0.481-0.101-0.865-0.482-1.208-0.509-0.458-1.271-0.567-1.936-0.534-0.523 0.026-1.068 0.167-1.421 0.574-0.257 0.296-0.341 0.68-0.298 1.061 0.041 0.368 0.23 0.66 0.539 0.868 0.483 0.324 1.101 0.446 1.662 0.57 1.234 0.273 2.774 0.489 3.764 1.32 0.607 0.51 0.89 1.186 0.947 1.959 0.070 0.945-0.186 1.831-0.826 2.548-0.891 0.996-2.219 1.4-3.524 1.484-1.441 0.098-3.034-0.184-4.161-1.132-0.827-0.695-1.177-1.585-1.261-2.633l2.483-0.004c0.113 0.52 0.305 0.953 0.74 1.288 0.598 0.461 1.439 0.553 2.173 0.472 0.573-0.063 1.175-0.284 1.533-0.751 0.223-0.291 0.302-0.651 0.252-1.010-0.051-0.37-0.264-0.671-0.578-0.875-0.354-0.23-0.792-0.343-1.197-0.449-1.336-0.35-2.937-0.465-4.050-1.333-0.602-0.469-0.953-1.109-1.042-1.861-0.108-0.925 0.073-1.793 0.67-2.53 0.747-0.923 1.956-1.318 3.105-1.449z"
      ></path>
      <path
        d="M43.711 4.11c-0.874-0.562-2.028-0.661-3.044-0.623-1.099 0.072-2.383 0.321-3.14 1.189-0.405 0.464-0.557 1.023-0.583 1.622l2.271 0.009c0.247-0.489 0.549-0.832 1.097-1.003 0.497-0.155 1.146-0.155 1.608 0.095 0.267 0.145 0.481 0.393 0.567 0.684 0.047 0.159 0.061 0.33 0.075 0.496 0.002 0.027 0.004 0.053 0.007 0.080-0.155 0.171-0.293 0.289-0.509 0.378-0.512 0.212-1.125 0.251-1.708 0.289-0.203 0.013-0.402 0.026-0.593 0.046-1.708 0.178-3.299 0.8-3.173 2.792 0.025 0.401 0.132 0.748 0.306 1.109 0.445 0.701 1.045 1.137 1.867 1.318 0.996 0.219 2.201 0.116 3.076-0.433 0.302-0.19 0.555-0.425 0.798-0.682 0.050 0.346 0.119 0.678 0.206 1.017l2.286-0.004c-0.252-1.19-0.233-2.424-0.214-3.646 0.005-0.33 0.010-0.658 0.010-0.985-0-0.113 0.001-0.228 0.002-0.344 0.006-0.725 0.012-1.508-0.223-2.179-0.18-0.514-0.53-0.928-0.988-1.223zM42.493 8.333l0.069 0.037c0.099 0.507-0.029 1.177-0.294 1.612-0.29 0.478-0.76 0.838-1.311 0.968-0.505 0.119-0.953 0.054-1.391-0.219-0.182-0.162-0.328-0.331-0.405-0.565-0.088-0.27-0.074-0.596 0.065-0.848 0.307-0.559 1.407-0.705 2.319-0.826 0.369-0.049 0.706-0.094 0.949-0.16z"
      ></path>
      <path
        d="M17.255 16.657l2.446 0 0.002 4.473c0.111-0.142 0.222-0.285 0.348-0.414 0.621-0.637 1.47-0.921 2.352-0.937 0.915-0.016 1.872 0.217 2.538 0.867 0.422 0.411 0.698 0.953 0.827 1.521 0.183 0.809 0.090 1.73 0.090 2.558l0.001 4.073-2.444 0.001c-0.020-1.091-0.002-2.185-0.002-3.277-0.002-0.881 0.221-2.5-0.405-3.196-0.286-0.318-0.69-0.45-1.11-0.472-0.57-0.030-1.206 0.042-1.636 0.447-0.266 0.251-0.425 0.592-0.499 0.944-0.15 0.71-0.067 1.53-0.064 2.253l0.002 3.3-2.447 0.001c-0.026-1.374-0.002-2.753-0.002-4.127l0.002-8.014z"
      ></path>
      <path
        d="M52.041 3.485c0.136-0.010 0.272-0.016 0.409-0.016 0.879-0.005 1.689 0.249 2.321 0.87 0.409 0.406 0.693 0.917 0.822 1.475 0.198 0.836 0.093 1.808 0.093 2.667l0.005 4.010h-2.427l0.003-3.639c0-0.658 0.051-1.371-0.039-2.023-0.038-0.278-0.104-0.552-0.273-0.783-0.241-0.33-0.646-0.528-1.051-0.572-0.662-0.073-1.24 0.029-1.777 0.428-0.267 0.296-0.388 0.548-0.465 0.937-0.127 0.636-0.055 1.374-0.054 2.021l0.006 3.631-2.501 0.001 0.004-8.808 2.409 0.001c0.001 0.385 0.005 0.77 0.011 1.155 0.059-0.077 0.119-0.153 0.18-0.228 0.602-0.739 1.392-1.026 2.323-1.127z"
      ></path>
      <path
        d="M66.267 3.486c1.007-0.061 2.015 0.105 2.887 0.625 1.017 0.606 1.555 1.491 1.836 2.606-0.809-0.010-1.617-0.010-2.426-0.002-0.188-0.437-0.454-0.815-0.86-1.083-0.42-0.278-0.944-0.395-1.442-0.286-0.573 0.125-1.050 0.466-1.362 0.955-0.495 0.776-0.543 1.919-0.32 2.789 0.157 0.613 0.505 1.193 1.076 1.511 0.468 0.261 1.076 0.32 1.59 0.165 0.67-0.203 1.043-0.738 1.342-1.323l2.355-0.002c-0.168 0.655-0.396 1.249-0.833 1.779-0.732 0.887-1.807 1.359-2.946 1.475-1.257 0.128-2.52-0.158-3.508-0.958-0.97-0.785-1.512-1.931-1.62-3.154-0.113-1.28 0.158-2.576 1.014-3.576 0.827-0.967 1.964-1.411 3.217-1.522z"
      ></path>
      <path
        d="M24.391 3.529c0.226-0.014 0.452 0.013 0.677 0.032l-0.001 2.251-0.363-0.003c-0.805-0.002-1.717 0.050-2.313 0.661-0.273 0.28-0.427 0.627-0.51 1.002-0.147 0.661-0.073 1.42-0.071 2.096l0.005 2.921c-0.72 0.002-1.713 0.087-2.408-0.020-0.071-0.099-0.051-0.198-0.055-0.317l0-8.468 2.415-0.001c0.011 0.409 0.026 0.817 0.045 1.225 0.095-0.152 0.195-0.295 0.312-0.431 0.564-0.66 1.432-0.877 2.266-0.949z"
      ></path>
      <path
        d="M57.945 3.684l2.49 0.002-0.002 5.833c0 0.984 0.055 1.992-0.011 2.972l-2.484 0.001c0.040-1.143 0.018-2.292 0.018-3.436l-0.010-5.372z"
      ></path>
      <path
        d="M57.883 0.26l2.759-0.002c-0.006 0.679-0.005 1.358 0.002 2.037l-2.761 0.001v-2.036z"
      ></path>
    </symbol>
  </defs>
</svg>