<svg
  aria-hidden="true"
  style="position: absolute; width: 0; height: 0; overflow: hidden;"
  version="1.1"
  xmlns="http://www.w3.org/2000/svg"
  xmlns:xlink="http://www.w3.org/1999/xlink"
>
  <defs>
  <symbol id="icon-star" viewBox="0 0 34 32">
<path d="M15.277 1.031c0.579-1.375 2.551-1.375 3.13 0l3.417 8.116c0.244 0.58 0.796 0.976 1.43 1.026l8.869 0.702c1.503 0.119 2.112 1.972 0.967 2.941l-6.757 5.718c-0.483 0.408-0.694 1.049-0.546 1.66l2.064 8.55c0.35 1.449-1.245 2.594-2.532 1.817l-7.593-4.582c-0.542-0.327-1.224-0.327-1.767 0l-7.593 4.582c-1.287 0.776-2.882-0.369-2.532-1.817l2.064-8.55c0.147-0.611-0.063-1.252-0.546-1.66l-6.757-5.718c-1.145-0.969-0.536-2.822 0.967-2.941l8.869-0.702c0.633-0.050 1.185-0.446 1.429-1.026l3.417-8.116z"></path>
</symbol>
<symbol id="icon-star-outline" viewBox="0 0 34 32">
<path stroke-linejoin="miter" stroke-linecap="butt" stroke-miterlimit="4" stroke-width="1.6842" d="M16.053 1.359c0.29-0.688 1.289-0.688 1.579 0l3.416 8.115c0.368 0.873 1.197 1.465 2.14 1.539l8.868 0.702c0.771 0.061 1.046 0.986 0.49 1.457l-6.758 5.719c-0.724 0.612-1.044 1.579-0.821 2.502l2.066 8.549c0.167 0.694-0.609 1.303-1.28 0.898h-0.002l-7.59-4.581c-0.81-0.489-1.828-0.489-2.638 0l-7.592 4.581c-0.671 0.405-1.447-0.204-1.28-0.898l2.066-8.549c0.223-0.923-0.097-1.889-0.821-2.502l-6.758-5.719c-0.556-0.472-0.281-1.396 0.49-1.457l8.868-0.702c0.943-0.075 1.772-0.666 2.14-1.539l3.416-8.115z"></path>
</symbol>
    </defs>
</svg>